<?xml version="1.0" standalone="no"?><!DOCTYPE svg PUBLIC "-//W3C//DTD SVG 1.1//EN" "http://www.w3.org/Graphics/SVG/1.1/DTD/svg11.dtd"><svg class="icon" width="200px" height="200.00px" viewBox="0 0 1024 1024" version="1.1" xmlns="http://www.w3.org/2000/svg"><path fill="#333333" d="M420.515607 430.055541a90.234868 90.234868 0 0 0 9.599454 41.597634 101.754213 101.754213 0 0 0 17.91898 23.678653 92.794722 92.794722 0 0 0 127.992721 0 101.754213 101.754213 0 0 0 17.279017-23.678653l3.839782-8.319527a93.434686 93.434686 0 0 0 5.759672-33.278107A92.154759 92.154759 0 0 0 448.034041 364.779253a88.954941 88.954941 0 0 0-27.518434 65.276288z"  /><path fill="#333333" d="M872.969873 152.311337A490.212119 490.212119 0 0 0 512.030402 3.199818a491.492046 491.492046 0 0 0-360.299508 149.111519A491.492046 491.492046 0 0 0 0.05952 511.970882a491.492046 491.492046 0 0 0 149.111519 360.299508A492.13201 492.13201 0 0 0 512.030402 1023.941763a490.212119 490.212119 0 0 0 360.299508-149.751483A489.572156 489.572156 0 0 0 1024.001283 511.970882a489.572156 489.572156 0 0 0-151.03141-359.659545zM723.21839 511.970882a186.869372 186.869372 0 0 1-8.95949 19.838871 232.306788 232.306788 0 0 1-29.438326 42.877562l-161.270828 236.146569a21.758762 21.758762 0 0 1-17.91898 8.95949 22.398726 22.398726 0 0 1-17.918981-9.599454L332.200629 563.807933a245.746023 245.746023 0 0 1-20.478835-31.99818 226.547115 226.547115 0 0 1-23.678653-101.754212 218.227588 218.227588 0 0 1 63.99636-158.710974A216.947661 216.947661 0 0 1 512.030402 205.428316a225.267188 225.267188 0 0 1 224.627224 224.627225A236.146569 236.146569 0 0 1 723.21839 511.970882z"  /></svg>