<?xml version="1.0" standalone="no"?><!DOCTYPE svg PUBLIC "-//W3C//DTD SVG 1.1//EN" "http://www.w3.org/Graphics/SVG/1.1/DTD/svg11.dtd"><svg class="icon" width="200px" height="200.00px" viewBox="0 0 1024 1024" version="1.1" xmlns="http://www.w3.org/2000/svg"><path fill="#333333" d="M887.463267 0H136.536733C61.44 0 0 61.44 0 136.536733v750.926534C0 962.56 61.44 1024 136.536733 1024h750.926534c75.096733 0 136.536733-61.44 136.536733-136.536733V136.536733C1024 61.44 962.56 0 887.463267 0zM750.936733 794.171155c-43.234422 43.805578-204.8 1.703267-364.111554-157.016733-159.862311-159.291155-200.822311-320.856733-156.445577-364.111553 37.543267-37.543267 83.633466-103.542311 151.896733-17.634423s35.268845 109.223267-4.548845 147.888446c-27.303267 26.742311 30.148845 95.005578 88.733068 154.171156 59.736733 58.594422 127.428845 116.056733 154.171155 88.733068C659.888446 607.005578 683.805578 574.011155 768 641.703267c85.897689 69.354582 20.48 116.056733-17.063267 152.457689z" /></svg>