<svg xmlns="http://www.w3.org/2000/svg" width="17.549" height="20.198" viewBox="0 0 17.549 20.198"><path d="M11.586.017C12.688,0,13.783.01,14.877,0A5.241,5.241,0,0,0,16.35,3.511a5.943,5.943,0,0,0,3.568,1.505V8.406a8.947,8.947,0,0,1-3.535-.815,10.218,10.218,0,0,1-1.364-.783c-.006,2.459.01,4.915-.016,7.365a6.41,6.41,0,0,1-1.138,3.317,6.264,6.264,0,0,1-4.974,2.7,6.124,6.124,0,0,1-3.432-.864,6.339,6.339,0,0,1-3.071-4.806q-.033-.626-.01-1.252A6.342,6.342,0,0,1,9.725,7.641c.017,1.247-.033,2.492-.033,3.739A2.9,2.9,0,0,0,6,13.165a3.35,3.35,0,0,0-.114,1.354,2.873,2.873,0,0,0,5.277,1.062,1.98,1.98,0,0,0,.345-.894c.082-1.505.05-3,.06-4.51.007-3.393-.01-6.776.016-10.159Z" transform="translate(-2.368)"/></svg>