<svg xmlns="http://www.w3.org/2000/svg" width="31.908" height="32.451" viewBox="0 0 31.908 32.451"><g transform="translate(0 0)"><path d="M1043.185,7764.695h-13.566a9.172,9.172,0,0,0-9.171,9.172v14.108a9.172,9.172,0,0,0,9.171,9.171h13.566a9.172,9.172,0,0,0,9.171-9.171v-14.108A9.171,9.171,0,0,0,1043.185,7764.695Zm-19.481,9.172a5.922,5.922,0,0,1,5.915-5.916h13.566a5.921,5.921,0,0,1,5.915,5.916v14.108a5.921,5.921,0,0,1-5.915,5.915h-13.566a5.922,5.922,0,0,1-5.915-5.915Z" transform="translate(-1020.448 -7764.695)" fill="#fff"/><path d="M1042.585,7795.681a8.357,8.357,0,1,0-8.357-8.357A8.367,8.367,0,0,0,1042.585,7795.681Zm0-14.109a5.752,5.752,0,1,1-5.752,5.752A5.759,5.759,0,0,1,1042.585,7781.571Z" transform="translate(-1026.631 -7771.098)" fill="#fff"/><ellipse cx="1.872" cy="1.872" rx="1.872" ry="1.872" transform="translate(22.683 5.752)" fill="#fff"/></g></svg>