<svg xmlns="http://www.w3.org/2000/svg" width="19.859" height="20.198" viewBox="0 0 19.859 20.198"><g transform="translate(0 0)"><path d="M1034.6,7764.694h-8.443a5.709,5.709,0,0,0-5.708,5.709v8.781a5.709,5.709,0,0,0,5.708,5.708h8.443a5.709,5.709,0,0,0,5.708-5.708V7770.4A5.709,5.709,0,0,0,1034.6,7764.694Zm-12.125,5.709a3.686,3.686,0,0,1,3.682-3.682h8.443a3.685,3.685,0,0,1,3.681,3.682v8.781a3.685,3.685,0,0,1-3.681,3.681h-8.443a3.685,3.685,0,0,1-3.682-3.681Z" transform="translate(-1020.448 -7764.694)"/><path d="M1039.429,7789.369a5.2,5.2,0,1,0-5.2-5.2A5.208,5.208,0,0,0,1039.429,7789.369Zm0-8.782a3.58,3.58,0,1,1-3.58,3.58A3.584,3.584,0,0,1,1039.429,7780.587Z" transform="translate(-1029.5 -7774.069)"/><ellipse cx="1.165" cy="1.165" rx="1.165" ry="1.165" transform="translate(14.118 3.58)"/></g></svg>