<svg xmlns="http://www.w3.org/2000/svg" xmlns:xlink="http://www.w3.org/1999/xlink" width="960" height="1019" viewBox="0 0 960 1019"><defs><clipPath id="a"><rect width="205.287" height="324.799" fill="none"/></clipPath></defs><rect width="960" height="1019" fill="#0d0d0d"/><g transform="translate(377.356 347.1)"><g clip-path="url(#a)"><path d="M123.7,178.631a25.112,25.112,0,0,0,2.457,1,1.8,1.8,0,0,1,1.409,2.276q-.458,3.364-.845,6.738a15.634,15.634,0,0,0-.155,2.634,2.99,2.99,0,0,1-1.379,2.763,11.566,11.566,0,0,0-4.751,7.031,8.433,8.433,0,0,0,4.52,9.008c4.151,1.984,4.151,1.984,6.8,5.693.1-.048.262-.071.3-.153,1.815-3.584,3.521-7.179,2.249-11.39-.555-1.836-.83-3.766-1.5-5.554a8.336,8.336,0,0,0-2.1-3.24c-2.056-1.828-2.445-3.938-1.871-6.48,1.4-6.2,2.691-12.435,4.149-18.626a3.955,3.955,0,0,1,1.719-2.338c5.085-2.729,5.651-8.018,3.612-12.771-.367-.856-.693-1.731-1.037-2.6l.308-.164a8.076,8.076,0,0,1,.843,1.03c2.2,3.81,4.589,7.532,6.531,11.472,3.027,6.145,2.784,12.565.862,19-1.845,6.184-3.138,12.458-2.63,18.958.358,4.568.9,9.125,3.567,13.063a15.678,15.678,0,0,0,8.911,6.218c3.253.953,7.755-1.322,9.7-4.679a13.419,13.419,0,0,0,1.386-8.676,58.7,58.7,0,0,0-1.666-7.461,14.616,14.616,0,0,0-3.059-5.414,27.019,27.019,0,0,1-2.721-5.029,12.768,12.768,0,0,1-.564-1.83c-1.153,1.172-2.156,2.161-3.125,3.182-.95,1-1.866,2.035-2.965,3.237a22.093,22.093,0,0,1-2.673-2.51,49.941,49.941,0,0,1-3.418-5.125,2.126,2.126,0,0,1,.028-1.828,34.936,34.936,0,0,0,4.993-16.564c.284-4.887-.817-9.559-2.2-14.213a67.22,67.22,0,0,0-8.374-17.251c-.266-.414-.492-.854-.736-1.282l.194-.392a12.119,12.119,0,0,1,2.167.786A25.76,25.76,0,0,1,155,154.2a49.383,49.383,0,0,1-.843,26.828c-.648,1.984-.305,2.756,1.349,4.173a20.335,20.335,0,0,0,5.272-10.8,75.786,75.786,0,0,0,.774-9.9,15.939,15.939,0,0,1,2.984-9.547,16.684,16.684,0,0,0,3.071-8.412,2.508,2.508,0,0,1,.166-.98,1.448,1.448,0,0,1,.826-.672c.181-.032.616.411.656.681.54,3.705.864,7.379-.22,11.092a98.52,98.52,0,0,0-4.112,27.535,23,23,0,0,0,5.759,15.468,6.056,6.056,0,0,0,1.35,1.119c1.9,1.187,2.6.95,3.856-.916,1.713-2.549,2.193-5.509,2.917-8.379,1.377-5.461,2.529-11,2.362-16.647-.237-7.966-1.124-15.876-5.261-22.933-2.438-4.159-5.24-8.1-7.881-12.144-.825-1.262-1.7-2.5-2.465-3.792-.185-.312-.032-.824-.033-1.245.438.139,1.111.144,1.279.438,1.736,3.048,4.828,3.36,7.777,3.937a6.5,6.5,0,0,0,4.638-.395c-1.039-.887-2.037-1.711-3-2.569-5.529-4.911-10.481-10.317-14.016-16.87-2.231-4.136-3.218-8.7-4.251-13.239-1.5-6.57-3.2-13.1-4.461-19.713a44.045,44.045,0,0,1-.5-9.643c.145-4.4.515-8.8,1.038-13.174a40.9,40.9,0,0,1,5.057-14.912c1.454-2.638,2.731-5.376,4.035-8.095a4.416,4.416,0,0,0-.254-4.339,26.038,26.038,0,0,0-6.072-7.008c-1.267-1.029-1.76-.954-2.918.18a14.808,14.808,0,0,0-4.079,8.489c-.856,5.336-1.42,10.72-2.051,16.091-.183,1.557-.432,1.886-1.927,1.685a6.422,6.422,0,0,0-4.985,1.654,14.2,14.2,0,0,0-4.686,6.871c-.508,1.551-.947,3.125-1.485,4.665a10.26,10.26,0,0,1-.9,1.612l-.526-.166a22.406,22.406,0,0,1,.22-2.482c.807-4.075,1.818-8.141,1.136-12.334-.5-3.055-1.207-6.076-1.768-9.122-.425-2.307-.755-4.632-1.147-6.945A3.074,3.074,0,0,1,133.1,36.1a24.694,24.694,0,0,0,3.9-3.354c2.854-3.242,3.147-7.153,2.287-11.158-.462-2.148-.682-4,1.807-5.089l-2.054-3.011c-.794.734-.4,2.476-1.879,2.244a9.785,9.785,0,0,1-2.688-1.367c.065,1.129.167,2.2.178,3.272.014,1.462-.729,2.155-2.153,1.814a9.81,9.81,0,0,1-2.7-1.253c-1.968-1.2-3.88-2.484-5.835-3.7a4.6,4.6,0,0,0-1.287-.483c-.953-.243-1.471.118-1.417,1.142a6.741,6.741,0,0,0,1.907,4.143c.773.875,1.563,1.734,2.381,2.64-1.373.279-2.618-.2-4.831-1.945-1.413-1.113-2.753-2.316-4.219-3.556-.367.492-.742.934-1.05,1.417-6.6,10.377-13.327,20.672-19.716,31.175A35.22,35.22,0,0,1,83.766,61.3a92.757,92.757,0,0,0-11.4,8.464c-4.251,3.582-6.672,8.562-9.3,13.35C58.644,91.169,56,99.94,52.742,108.461c-.659,1.719-1.38,3.414-2.028,5.138a13.1,13.1,0,0,1-4.025,5.479Q27.869,134.965,8.11,149.663a9.975,9.975,0,0,0-3.836,4.861,3.845,3.845,0,0,0,.067,2.377c1.294,3.417,3.96,5.539,7.105,7.144a40.839,40.839,0,0,0,11.885,3.5,61.425,61.425,0,0,0,25.221-.976,38.127,38.127,0,0,0,16.438-8.634,40.346,40.346,0,0,1,4.821-3.753c-.276.681-.5,1.386-.836,2.039-3.043,6.014-8.233,9.471-14.267,11.89-5.121,2.052-10.535,2.753-15.97,3.209a68.357,68.357,0,0,1-18.448-.691,37.231,37.231,0,0,1-14.443-5.9,14.2,14.2,0,0,1-5.459-7.2,6.052,6.052,0,0,1,.265-4.876A17.784,17.784,0,0,1,6,146.223C15.853,138.8,25.732,131.4,35.526,123.89c3.328-2.551,6.434-5.391,9.634-8.107a12.254,12.254,0,0,0,3.522-5.271c2.9-7.853,5.632-15.783,8.874-23.5,2.627-6.251,5.666-12.373,10.489-17.354A65.147,65.147,0,0,1,82.622,58.138a24.781,24.781,0,0,0,8.642-8.076c6.643-10.1,13.415-20.107,20.155-30.139.889-1.323,1.854-2.6,2.836-3.857a14.971,14.971,0,0,0,2.856-5.818,18.236,18.236,0,0,1,4.209-7.786,6.275,6.275,0,0,1,8.595-1.317,24.973,24.973,0,0,1,8.109,7.578,28.294,28.294,0,0,0,2.843,3.363c2.452,2.823,3.737,6.221,4.865,9.714,1.078,3.34,2.247,6.65,3.466,10.242.837-1.18,1.541-2.182,2.255-3.176,2.1-2.929,3.906-3.378,6.94-1.429a16.959,16.959,0,0,1,3.616,3.247,35.06,35.06,0,0,1,2.893,4.259,7.3,7.3,0,0,1,.593,6.978q-3,7.4-5.949,14.818a35.638,35.638,0,0,0-2.524,11.24c-.228,4.11-.507,8.22-.606,12.332-.12,5.027,1.318,9.766,3,14.438.7,1.93,1.332,3.881,2.018,5.815,2.135,6.016,6.436,10.229,11.53,13.76,4.878,3.382,10.386,5.409,15.935,7.342,1.3.453,2.6.917,4.186,1.479-3.515,1.819-7,.836-10.474,1.054,1.511,1.014,3.05,1.989,4.527,3.049,4.653,3.336,8.7,7.31,10.667,12.767a138.9,138.9,0,0,1,4.065,14.5,20.41,20.41,0,0,1,.062,10.343c-.041.148-.1.291-.262.748-1.815-5.647-4.858-9.984-10.157-12.458.95,1.307,1.917,2.6,2.849,3.922A63.514,63.514,0,0,1,204.52,178.4a33.915,33.915,0,0,1,.068,14.007c-.29,1.693-.576,3.387-.886,5.077a1.672,1.672,0,0,1-.638,1.054,4.578,4.578,0,0,1-.051-.9,16.258,16.258,0,0,0-.827-7.191c-1.693-5.341-3.682-10.523-7.414-14.86a6.716,6.716,0,0,0-4.01-2.388,1.73,1.73,0,0,0-2.129.919,1.785,1.785,0,0,0,.674,2.214c4.167,3.363,6.11,7.985,6.763,13.088.882,6.905,1.379,13.859,2.1,20.787a19.315,19.315,0,0,0,3.249,9.148c1.228,1.782,2.422,3.586,3.631,5.381l-.237.341a13.48,13.48,0,0,1-2.257-.777c-5.058-2.794-10.091-5.634-15.132-8.457-.246-.137-.507-.247-1.087-.526,2.985,7.855,3.671,15.586,1.36,23.542-2.224-7.095-5.373-13.51-12.087-17.874.386,1.054.641,1.9,1,2.7,1.651,3.682,3.232,7.415,3.727,11.438.975,7.926,1.624,15.888.044,23.817-1.975,9.918-7.9,17.237-15.617,23.332a8.061,8.061,0,0,1-2.4,1.387,12.847,12.847,0,0,1,.793-1.332,35.784,35.784,0,0,0,7.193-17.73c.646-5.188-.784-9.824-3.316-14.183-1.62-2.79-5.043-3.406-7.933-1.5a21.863,21.863,0,0,0-7.553,8.934c-1.444,2.955-1.662,6.2-2.324,9.354-1.5,7.151-1.187,14.378-.947,21.587.285,8.542-2.643,15.851-7.945,22.363-4.252,5.222-8.992,9.867-15.121,12.88-.5.248-1.039.434-1.877.778.436-.764.667-1.244.964-1.677,3.29-4.792,4.521-10.158,4.84-15.9a25.98,25.98,0,0,0-2.58-13.029c-2.238-4.644-5.987-6.809-11.015-7.089-2.471-.137-4.958-.237-7.4-.613-5.7-.877-9.183-4.534-11.389-9.6C92.785,267.785,93.414,259,98.8,250.637a25.131,25.131,0,0,1,2.934-3.207l.252.2c-.332,1.3-.76,2.586-.978,3.9-.786,4.752,2.522,11.115,6.854,13.126a35.012,35.012,0,0,0,5.712,2.237c2.962.782,5.771-.38,8.4-1.506,6.173-2.649,10.967-7.061,12.148-13.77,1.7-9.647-.1-18.664-7.58-25.807-4.018-3.84-7.545-8.019-9.194-13.469-1.805-5.968-2.691-12-.34-18.01a68.651,68.651,0,0,1,3.527-6.767l-4.018-1.668c-.447,2.249-.959,4.347-1.268,6.475-.783,5.394-1.6,10.788-2.156,16.207a56.379,56.379,0,0,0-.141,9.277c.2,3.19,2,5.612,4.568,7.489a15.174,15.174,0,0,1,6.014,9.018c1.368,5.784-.516,10.558-4.5,14.7a25.354,25.354,0,0,1-7.089,4.942q-2.957,1.483-5.918,2.962l-.246-.269c.68-1.161,1.348-2.329,2.043-3.48a10.263,10.263,0,0,0-7.4-15.418,5.1,5.1,0,0,0-3.986,1.2,15.313,15.313,0,0,0-5.037,6.506c-1.543,4.148-3.346,8.293-3.442,12.8-.105,4.95.027,9.908.2,14.859.124,3.521.526,7.032.72,10.553a17.482,17.482,0,0,1-.313,2.911l-.415.046a12.1,12.1,0,0,1-.421-1.187q-1.146-4.631-2.261-9.271a6.224,6.224,0,0,0-2.317-3.636c-1.611-1.229-2.828-1.15-4.205.316a9.539,9.539,0,0,0-2.485,6.818A27.014,27.014,0,0,0,77.461,286c.742,2.909,1.282,5.926,3.046,8.466.812,1.169,1.747,2.251,2.9,3.727a11.564,11.564,0,0,1-2.284-.6,25.153,25.153,0,0,1-7.268-6.121c-5.743-6.641-8.959-14.612-12.1-22.618-1.712-4.367-4.207-8.018-8.374-10.326a6.72,6.72,0,0,0-2.71-.873,4.6,4.6,0,0,0-4.468,2.737c-2.724,5.1-2.375,10.152.453,15.1.437.764.941,1.49,1.409,2.235.066.105.107.226-.05.6a15.815,15.815,0,0,1-1.844-1.589,50.931,50.931,0,0,1-8.844-15.434c-1.465-3.867-2.629-7.849-3.908-11.786a8.616,8.616,0,0,1-.22-1.358l-.35-.017c-.026,1.939-.065,3.877-.076,5.816-.012,1.975-.125,3.961.041,5.923.169,1.985.625,3.946.7,6.179a3.525,3.525,0,0,0-.358-.722c-3.442-4.19-4.844-9.208-5.93-14.38a77.3,77.3,0,0,1-.927-24.307c.059-.542.078-1.089.108-1.634a1.373,1.373,0,0,0-.044-.294c-3.31,6.348-3.62,13.2-3.073,20.189l-.5.145a6.386,6.386,0,0,1-.916-1.107,50.608,50.608,0,0,1-4.725-15.309c-1.134-7.282-.116-14.45.859-21.663.867-6.428,3.7-12.148,5.791-18.141.178-.514.378-1.019.557-1.533.022-.063-.021-.148-.05-.312a2.924,2.924,0,0,0-.656.245c-4.046,2.8-8.121,5.57-10.582,10.042-.141.256-.271.585-.5.71a4.4,4.4,0,0,1-1.11.289c-.076-.328-.289-.7-.208-.979A27.784,27.784,0,0,1,17.657,185.9a84.622,84.622,0,0,1,13.082-11.4,5.856,5.856,0,0,1,3.016-1.047,74.572,74.572,0,0,0,27.794-6.779c.307-.136.607-.284.91-.428s.591-.282,1-.476c.364,1.234.771,2.373,1.031,3.544a27.916,27.916,0,0,0,3.49,8.306,1.371,1.371,0,0,1-.224,1.893,21.234,21.234,0,0,0-5.005,9.871,7.12,7.12,0,0,1-1.163,2.32c-2.4-3.337-5.329-6.289-5.827-10.62A32.155,32.155,0,0,0,33.78,196.2c5.207-1.817,9.851-5.14,15.908-5.721-.493.662-.757,1.051-1.056,1.412-1.285,1.549-2.716,3-3.841,4.653-1.9,2.8-2.292,6.04-2.291,9.574.85-.83,1.506-1.564,2.256-2.188,3.54-2.945,5.934-2.413,7.3,1.949a25.08,25.08,0,0,1,.842,11.811c-.055.323-.063.653-.091.969,1.523.366,1.858.251,2.358-1.262,2.216-6.718,4.419-13.441,6.553-20.185,1.1-3.473,1.979-7.016,3.107-10.478a5.222,5.222,0,0,1,1.779-2.434c2.742-2,5.628-3.811,8.4-5.778a2.071,2.071,0,0,1,2.91.166c2.034,1.682,2.932,4.033,3.968,6.33a6.982,6.982,0,0,1,.038,6.3,5.149,5.149,0,0,0-.441,1.176c-.472,2.182-1.388,3.47-4.045,3.222-1.226-.115-2.56,1.032-3.861,1.567a13.418,13.418,0,0,1-1.555.44,4.58,4.58,0,0,1,.173-1.673c1.419-2.644,2.654-5.332,2.682-8.408.015-1.7-.526-2.32-2.384-2.774a15.811,15.811,0,0,1-.272,2.838c-.671,2.413-1.378,4.825-2.241,7.174-2.052,5.584-4.076,11.185-6.359,16.676-1.443,3.471-3.329,6.757-5.026,10.122-.278.55-.606,1.075-1,1.771.312-.041.433-.021.5-.071a34.522,34.522,0,0,0,11.28-13.124,7.787,7.787,0,0,0,.468-1.428c.8-3.029.519-3.675-2.2-5.089a3.965,3.965,0,0,1-.442-.357,51.006,51.006,0,0,1,13.291-4.924l.224.4c-.29.321-.6.629-.867.968a15.05,15.05,0,0,0-2.154,2.821,62.609,62.609,0,0,0-2.241,6,23.466,23.466,0,0,1-5,8.664,19.387,19.387,0,0,0-5.073,12.831c-.2,4.2,2.01,7.483,5.481,9.742,1.848,1.2,3.937.754,5.761-.269a13.314,13.314,0,0,0,3.243-2.542c2.9-3.153,5.708-6.39,8.51-9.631a10.755,10.755,0,0,1,8.256-3.9,39.865,39.865,0,0,0,6.479-.755,3.233,3.233,0,0,0,1.949-1.524,17.34,17.34,0,0,0,1.873-7.353c.243-5.069.692-10.128,1.1-15.187a81.53,81.53,0,0,1,.907-8.879c1.017-5.257,2.278-10.471,3.571-15.669a5.4,5.4,0,0,1,1.719-2.408c3.9-3.509,7.873-6.947,11.82-10.408,1.223-1.073,1.523-1,2.032.532a25.021,25.021,0,0,0,.87,2.618c1.733,3.752.608,7.042-1.658,10.088-1.044,1.4-2.326,2.632-3.59,4.041m12.31,10.431.349.091c1.417-4.363,2.9-8.707,4.213-13.1a6.145,6.145,0,0,0-.395-4.5c-3.042,5.613-5.132,11.216-4.167,17.508m3.1-148.7a29.017,29.017,0,0,0-1.328-2.756c-1.222-2-1.421-2.011-3.328-.649-1.605,1.147-1.719,1.467-1.173,3.1l5.829.3M122.674,170.314c-2.905,1.569-4.293,4.335-3.437,6.849a9.454,9.454,0,0,0,3.437-6.849M144.2,39.6l3.124,3.616c.84-2.778.7-3.509-3.124-3.616" transform="translate(0 0)" fill="#fff"/><path d="M113.641,111.039c2.57-4.647,6.2-8.655,7.043-14.115a38.575,38.575,0,0,0-.429-13.265,20.457,20.457,0,0,1,1.23-11.724,51.536,51.536,0,0,1,9.672-15.373,15.033,15.033,0,0,1,1.26-1.12l.279.162c-.08.381-.133.768-.243,1.14a51.456,51.456,0,0,0-2.176,13.244,15.141,15.141,0,0,0,1.111,5.724c1.67,4.249,4.587,7.7,7.819,10.858a27.6,27.6,0,0,1,7.364,11.551c1.452,4.63.545,9.043-1.191,13.361a8.945,8.945,0,0,1-1.616,2.008,37,37,0,0,0-.026-4.276c-.445-3.645-4.265-7.228-7.6-7.326a3.077,3.077,0,0,0-2.91,1.594c-1.847,2.9-1.578,6.014-.926,9.139a26.154,26.154,0,0,0,7.059,12.847c4.32,4.5,5.956,9.854,5.766,15.971-.109,3.545-1.213,6.831-2.2,10.16a6.084,6.084,0,0,1-.843,1.369l-.438-.181c.2-1.252.355-2.512.606-3.753.792-3.907-.381-7.288-2.723-10.358-.509-.667-1.074-1.291-1.632-1.919a3.576,3.576,0,0,0-3.537-1.21c.293,1.576.567,3.115.864,4.649a44.41,44.41,0,0,1,.137,13.033,27.8,27.8,0,0,1-4.454,12.267,50.884,50.884,0,0,0-6.752,18.822c-.625,3.616-.63,7.339-.916,11.013-.35,4.473-.639,8.952-1.065,13.418-.6,6.343-1.39,12.671-1.926,19.02a35.952,35.952,0,0,0,.464,5.834c-.338-.151-.9-.219-1.142-.532a20.17,20.17,0,0,1-4.447-15.992c.611-4.1.942-8.236,1.356-12.361a12.654,12.654,0,0,0-.226-2.22c-1.642,1.019-3.1,1.872-4.493,2.828-.315.217-.44.78-.55,1.21-.765,3-1.438,6.022-2.268,9a13.687,13.687,0,0,1-4.062,6.406c-2.19,2.025-4.346,4.086-6.546,6.1A23.247,23.247,0,0,0,90.8,242.056c-.067.44-.2.87-.3,1.3l-.38.045A5.026,5.026,0,0,1,89.764,242c.262-5.646,1.136-11.09,3.744-16.271,3.881-7.709,7.5-15.557,11-23.451a110.562,110.562,0,0,1,11.232-19.331c2.934-4.124,5.345-8.532,6.212-13.619a27.413,27.413,0,0,0-.981-13.754c-.137.513-.277,1.025-.411,1.539-1.852,7.066-4.648,13.682-9.8,19-1.511,1.556-3.593,2.559-5.423,3.8a4.261,4.261,0,0,1-.947.282c.319-.648.5-1.085.74-1.492a60.434,60.434,0,0,0,5.914-13.019,11.055,11.055,0,0,0-1-8.766c-1.566-2.82-3.983-4.588-7.237-4.406-3.8.213-7.169,1.5-8.713,5.484a15.176,15.176,0,0,0-.653,8.783c.094.446.137.9.2,1.352l-.325.184a10.7,10.7,0,0,1-1.449-2.293,70.146,70.146,0,0,1-1.926-7.006,44.361,44.361,0,0,1,.6-20.447,26.964,26.964,0,0,1,4.189-8.683c2.04-2.923,4.2-5.762,6.332-8.624a22.118,22.118,0,0,0,4.523-11.165,11.784,11.784,0,0,0-.678-5.566,4.735,4.735,0,0,1-.063-1.536,5.981,5.981,0,0,1,1.511.129,10.5,10.5,0,0,1,6.565,6.673c.129.354.271.7.411,1.051.012.028.062.04.305.194m13.965,25.951.347.022c.077-1.789.031-3.594.257-5.364a14.761,14.761,0,0,0-1.511-8.273c-1.58-3.407-3.429-6.731-4.011-10.523-.15-.974-.249-1.956-.392-3.1-.641,1.19-1.135,2.239-1.75,3.211-1.142,1.806-2.417,3.528-3.525,5.353-3.536,5.825-7.619,11.364-9.671,17.983-.442,1.428-.693,2.915-1.031,4.375l.364.109a28.435,28.435,0,0,0,1.476-2.59,12.9,12.9,0,0,1,8.033-7.206,8.344,8.344,0,0,1,10.62,4.177c.3.592.533,1.215.8,1.824m-14.413,61.562c.954-.518,1.585-.928,2.268-1.217a2.723,2.723,0,0,0,1.76-2.5c.128-1.449.324-2.892.53-4.674a30.02,30.02,0,0,0-4.557,8.39" transform="translate(-18.452 -11.492)" fill="#fff"/><path d="M21.442,191.454c2.335-.976,4.37-1.654,6.235-2.65a62.3,62.3,0,0,0,6.943-4.284,10.716,10.716,0,0,0,2.528-3.06,2.306,2.306,0,0,0-.078-1.774c-.067-.172-1-.171-1.448-.009-3.3,1.193-6.585,2.445-9.872,3.684-.419.158-.824.35-1.5.637a6.172,6.172,0,0,1,.507-1.607,26.69,26.69,0,0,1,3.5-4.542c5.165-4.611,10.489-9.045,15.732-13.57,1.939-1.673,3.811-3.424,5.728-5.121.457-.405.976-.739,1.738-1.309-.241,1.727-.434,3.114-.627,4.5,2.52-3.058,4.548-6.492,7.888-8.873-.652,1.569-1.346,3.122-1.945,4.71-.943,2.5-1.954,4.993-2.691,7.559a8.064,8.064,0,0,0,1.413,7.614c.89,1.112,1.641,2.351,2.623,3.371a6.445,6.445,0,0,0,6.222,1.871,15.923,15.923,0,0,1,1.765-.154c-2.182,9.181-16.879,20.279-24.679,18.6,2.5-2.292,5.534-3.98,7.287-7.358-8.869,5.119-17.727,6.253-27.273,1.768" transform="translate(-4.444 -31.811)" fill="#fff"/><path d="M133.751,24.59a12.818,12.818,0,0,0,7.673,8.063,9.778,9.778,0,0,1-1.621.6,13.646,13.646,0,0,0-7.825,4.671c-6.679,7.468-12.386,15.7-18.551,23.564a31.615,31.615,0,0,0-4.384,7.309,17.385,17.385,0,0,0-.8,6.28,4.2,4.2,0,0,1-1.569,3.463,34.07,34.07,0,0,0-11.4,17.952,55.911,55.911,0,0,1-1.783,5.62c-.142.4-.688.649-1.049.969a3.924,3.924,0,0,1-.218-1.41c.6-2.482,1.352-4.929,1.884-7.424a12.165,12.165,0,0,0-.09-2.977l-.567-.175a39.243,39.243,0,0,0-3.265,3.573C86.61,99.644,83.147,104.7,79.6,109.69a3.319,3.319,0,0,1-1.387,1.041c-.766-.7.019-1.255.362-1.8,2.226-3.55,4.675-6.977,6.668-10.651A34.48,34.48,0,0,0,89.092,86.9a10.52,10.52,0,0,0,0-3.378,4.276,4.276,0,0,1,1.371-4.176q9.921-9.679,19.75-19.452c4.657-4.659,8.272-10.159,11.81-15.656,3.671-5.7,6.938-11.664,10.378-17.514.3-.506.569-1.025.869-1.53a6.832,6.832,0,0,1,.478-.606m-31.8,51.664c-2.3-.3-5.712,2.825-6.318,5.777,3.059.611,6.828-2.838,6.318-5.777" transform="translate(-16.145 -5.097)" fill="#fff"/><path d="M212.1,230.165c.262-1.265.5-2.534.788-3.795.479-2.12.981-4.234,1.481-6.349a2.6,2.6,0,0,1,.379-1.166,1.175,1.175,0,0,1,1.007.014c.931,2.639,1.877,5.279,2.628,7.972a6.632,6.632,0,0,1-.012,3.09c-.579,2.608-1.308,5.184-2.035,7.757-.1.369-.529.648-.8.968-.291-.251-.685-.447-.855-.763a17.776,17.776,0,0,1-2.576-7.728" transform="translate(-43.963 -45.341)" fill="#fff"/><path d="M171.514,233.919c-.965-6.292,1.126-11.895,4.167-17.508a6.145,6.145,0,0,1,.4,4.5c-1.313,4.394-2.8,8.737-4.214,13.1l-.349-.091" transform="translate(-35.501 -44.857)" fill="#222"/><path d="M173.886,49.784l-5.829-.3c-.545-1.635-.433-1.955,1.173-3.1,1.907-1.363,2.106-1.351,3.328.649a29.013,29.013,0,0,1,1.328,2.756" transform="translate(-34.773 -9.417)" fill="#222"/><path d="M153.786,214.846a9.455,9.455,0,0,1-3.438,6.849c-.855-2.515.533-5.28,3.438-6.849" transform="translate(-31.111 -44.532)" fill="#222"/><path d="M181.906,49.958c3.822.107,3.964.839,3.124,3.616l-3.124-3.616" transform="translate(-37.704 -10.355)" fill="#222"/><path d="M132.128,151.191c-.263-.609-.5-1.232-.8-1.823a8.346,8.346,0,0,0-10.621-4.178,12.907,12.907,0,0,0-8.034,7.207,28.083,28.083,0,0,1-1.476,2.59l-.363-.109c.339-1.459.59-2.947,1.032-4.375,2.052-6.618,6.135-12.157,9.671-17.983,1.107-1.825,2.384-3.547,3.525-5.353.615-.972,1.107-2.021,1.75-3.211.143,1.142.243,2.124.392,3.1.582,3.793,2.431,7.116,4.01,10.523a14.749,14.749,0,0,1,1.511,8.273c-.225,1.77-.18,3.575-.257,5.364l-.346-.022" transform="translate(-22.974 -25.693)" fill="#222"/><path d="M119.512,233.778a30.022,30.022,0,0,1,4.557-8.39c-.205,1.782-.4,3.225-.53,4.674a2.723,2.723,0,0,1-1.76,2.5c-.683.289-1.314.7-2.268,1.217" transform="translate(-24.772 -46.717)" fill="#222"/><path d="M106.588,89.757c.51,2.939-3.259,6.389-6.318,5.777.606-2.952,4.022-6.077,6.318-5.777" transform="translate(-20.783 -18.6)" fill="#222"/></g></g></svg>