<svg xmlns="http://www.w3.org/2000/svg" width="738.81" height="236.94" viewBox="0 0 738.81 236.94"><path d="M148,73.12l-4.31.31c-19.52,0-8.89,43.42-8.89,43.42l-10.57,9.37c-8.49,5.85-20.19,10-35.28,12.26a88,88,0,0,1-10,.94c-19.81,0-36.42-5.85-49.44-17.35Q9.13,104,9.13,74.52a77.08,77.08,0,0,1,3-21.51C19.88,24.52,41.39,6.4,71,2.82a92.169,92.169,0,0,1,10.76-.57c9.24,0,19.62,2.27,31.13,7,3.58,1.51,6,2.08,7.74,1.89,4.52,0,7.44-3.08,7.35-7.73h3.78l2.83,48.68-3-.19-1.13-3.4c-9.25-21.13-21.89-33-38.12-35.47a51.43,51.43,0,0,0-7.17-.57c-14.15,0-24.53,6.61-30.94,19.81-4.72,10.19-7.17,23-7.17,38.68,0,3.21.38,7.55.94,13a66.76,66.76,0,0,0,10,28.68C64.6,123,72.71,128.1,82.33,128.1a22.19,22.19,0,0,0,7.55-1.51c5.66-2.45,8.68-7.54,9.25-14.9l.18-2.08v-6.22l-.18-2.65c-1.33-7.54,3-27.14-14.72-28.49v-4H148Z" fill="none" stroke="#fff" stroke-miterlimit="10" stroke-width="3"/><path d="M286.91,135.91l-69.63.27v-3.77l2.83-.2c6.6-.4,9.8-3.62,9.77-9.47a20.079,20.079,0,0,0-1-6.22l-1.34-3.43-1.32-3-7.62-17.7L186.9,82.15l-13.84,34.59a15.56,15.56,0,0,0-1.11,6.61q.88,7.64,9.66,9h2.45v4l-40.38.16v-4c4.72,0,9.24-3.06,13.74-9.11a22.38,22.38,0,0,0,3.94-6.62l1.68-3.41.93-3,2.81-6.8,37.43-99.4,23.44-.09,41.44,112.1a18.578,18.578,0,0,1,1.72,3.76l.19.38c.56.56,1.13,1.5,1.89,2.44,4.56,6.21,9.28,9.21,14,9.19ZM215.37,82l-9.15-38.8a1.76,1.76,0,0,0-3.34-.28l-12.8,30.33Z" fill="none" stroke="#fff" stroke-miterlimit="10" stroke-width="3"/><path d="M452.32,145.81v3.58H406.53L375.75,86.31c-3.39-7-9.43-11.32-17.92-12.64l-4.15-.19h-9.25v42.08a17.1,17.1,0,0,0,5.48,12.83,8.85,8.85,0,0,0,5.66,2.64l2.26.19v4h-63.4v-4a15.1,15.1,0,0,0,2.27-.19c4-.57,7.36-3.59,9.81-9.06a23.43,23.43,0,0,0,1.13-6.41l.19-5.1V22.73c0-7.36-4.53-14.34-11.13-15.66h-2.45v-4h79.81c13,0,23.58,2.08,31.88,6.23,10.76,5.28,16.23,13.77,16.23,25.47,0,5.47-.94,10-2.83,13.4-4.53,10.56-13.21,17.17-26,19.62l-4.15.76,3.59.56a26.06,26.06,0,0,1,17,9.62c3.2,4,6.41,9.63,10,17.36l3.39,7.36c3.74,8.23,7.35,17.52,13.11,23.74.1.11.19.21.29.34,3.9,5.14,11.07,16.42,14.06,16.42l1.75.07ZM388.69,37.07c0-8.49-2.7-14.53-8.31-18.12-4.78-3.21-12.06-4.71-21.83-4.71H348.2a3.57,3.57,0,0,0-3.58,3.57V60a2.9,2.9,0,0,0,2.91,2.9h9.15l6-.18c8.94-.19,15.17-1.7,18.91-4.72,4.78-3.77,7.07-10,7.07-18.68Z" fill="none" stroke="#fff" stroke-miterlimit="10" stroke-width="3"/><path d="M732,7.63l-2.26.19c-4,.38-7.17,3.4-9.43,8.87a14.64,14.64,0,0,0-1.32,6.6V94.8c0,17.93-6,30-18.12,36.42q-13.3,6.78-43,6.79c-15.66,0-27.17-2.45-34.9-7.55-9.25-6.23-13.78-16.6-13.78-31.32V23.29a16.31,16.31,0,0,0-3-9.81C604,9.89,601.4,8,598,7.82l-2.45-.19v-4h63.77v4l-2.07.19c-3.78.38-6.8,2.64-8.87,6.6a18.392,18.392,0,0,0-1.7,3.78c0,.19-.19,1.88-.38,5.09l-.19,6.42V97.82c0,5.85,0,9.06.19,9.81a24,24,0,0,0,3.59,9.06c4.72,6.6,12.83,9.81,24.53,9.81h2.45a48,48,0,0,0,7.36-.57c9.62-1.51,16-4.9,19.43-10.37,2.83-4.72,4.34-12.08,4.34-22.27v-70c0-5.47-1.7-9.81-4.9-13a11.2,11.2,0,0,0-6-2.45L695,7.63v-4h37Z" fill="none" stroke="#fff" stroke-miterlimit="10" stroke-width="3"/><path d="M303.83,161.55c-1.94,0-4.08,0-5.56,1.31-1.6,1.72-2.07,2.42-2.19,4.46l-.11,1.39-.11,2,.22,51.88c.23,2-.11,2.14.8,3.32,1.48,1.93,4.53,2.24,6.92,2.24l-.09,4.41H265.45l.12-2.25-.12-2.33c2.74-.21,6.15.39,7.41-2.71l.56-3.86.23-3.86-.11-48.88c-.12-2.57.42-3.73-.72-5.23-1.82-2.25-5-1.38-7.37-1.59v-4.32h38.38Z" fill="none" stroke="#fff" stroke-miterlimit="10" stroke-width="3"/><path d="M400.28,159.81l-1.26.11c-2.28.22-4.21,1.93-5.69,5.15a48.8,48.8,0,0,0-.8,5.89l-.11,1.29V232.6h-6.61l-51.26-58.2a.7.7,0,0,0-1.22.46l.11,44.23c0,.54.11,1.72.22,3.75l.69,2.25c1.36,3.22,4.61,2.33,6.82,2.47v5H318.75v-2.25l-.13-2.71c3.19-.32,7.64-1.26,8-4.69v-1.5l.12-3.86-.23-48.88c-.34-5.47-3.49-6.17-7.25-6.49l-.27-2.41v-2.24h29.84l35.83,40.66a.73.73,0,0,0,1.28-.49l-.11-29a13.359,13.359,0,0,0-.57-3.64,9.19,9.19,0,0,0-5.56-5.24c-.48-.14-1-.33-1-.33a2,2,0,0,0-.63-.19v-3.81h22.17Z" fill="none" stroke="#fff" stroke-miterlimit="10" stroke-width="3"/><path d="M480.89,185.87l-3.49-.05a4.681,4.681,0,0,0-.22-1.25,8,8,0,0,1-.42-1.28,34.35,34.35,0,0,0-7.51-12.22,24,24,0,0,0-10.71-6.43l-4-1a33.078,33.078,0,0,0-4.56-.33,20.1,20.1,0,0,0-15,6c-3.53,3.53-5.8,8.25-6.94,14.25a76.309,76.309,0,0,0-1.26,13.08c0,8.79,1.94,16.08,5.93,21.76,4.66,6.75,11.38,10.18,20.15,10.18h1.93a3,3,0,0,1,1.14-.11,18.89,18.89,0,0,0,14.69-7.93,24.711,24.711,0,0,0,3.19-6.43h0l5.47.22h0a25.1,25.1,0,0,1-11.5,15.75c-5.58,3.54-12.87,5.36-21.75,5.36-12.19,0-22.21-3.32-29.83-9.86-7.86-6.86-11.85-16-11.85-27.44a46.052,46.052,0,0,1,1-9.75,35.62,35.62,0,0,1,14.8-22.51c7.63-5.58,16.51-8.36,26.87-8.36A57,57,0,0,1,467,161.43a19,19,0,0,0,4.9,1.17c2.16,0,3.41-.75,4-2.35a4.06,4.06,0,0,0,.23-2.15l4.35-.1Z" fill="none" stroke="#fff" stroke-miterlimit="10" stroke-width="3"/><path d="M573.71,26.78c-12.26-14.9-28.86-23.21-50-24.9a16.31,16.31,0,0,1-3-.38h-9.06c-22.83,1.32-40.76,9.81-53.78,25.28a66.73,66.73,0,0,0-15.66,43.4c0,20.57,7.17,37.17,21.7,50,13.78,12.08,31.13,18.11,51.89,18.11s38.11-6,51.89-18.11c14.52-12.83,21.69-29.43,21.69-50a66.67,66.67,0,0,0-15.67-43.4Zm-87.58,88.58c-10.47-6.83-5.68-32.72,10.7-57.83S535,17.6,545.45,24.43s5.68,32.73-10.71,57.83S496.6,122.19,486.13,115.36Z" fill="none" stroke="#fff" stroke-miterlimit="10" stroke-width="3"/><circle cx="6.5" cy="6.5" r="6.5" transform="translate(487.83 219.6)" fill="none" stroke="#fff" stroke-miterlimit="10" stroke-width="3"/><rect width="245.79" height="7.79" transform="translate(491.52 153.69)" fill="none" stroke="#fff" stroke-miterlimit="10" stroke-width="3"/><rect width="254.98" height="7.79" transform="translate(1.5 153.69)" fill="none" stroke="#fff" stroke-miterlimit="10" stroke-width="3"/></svg>