<svg xmlns="http://www.w3.org/2000/svg" xmlns:xlink="http://www.w3.org/1999/xlink" width="63" height="99.677" viewBox="0 0 63 99.677"><defs><clipPath id="a"><rect width="63" height="99.677" fill="none"/></clipPath></defs><g clip-path="url(#a)"><path d="M37.963,54.82a7.708,7.708,0,0,0,.754.307.552.552,0,0,1,.432.7q-.14,1.032-.259,2.068a4.8,4.8,0,0,0-.048.808.918.918,0,0,1-.423.848,3.55,3.55,0,0,0-1.458,2.158,2.588,2.588,0,0,0,1.387,2.764,3.649,3.649,0,0,1,2.087,1.747c.031-.015.08-.022.093-.047a4.559,4.559,0,0,0,.69-3.5c-.17-.563-.255-1.156-.46-1.7a2.558,2.558,0,0,0-.644-.994,1.865,1.865,0,0,1-.574-1.989c.43-1.9.826-3.816,1.273-5.716a1.214,1.214,0,0,1,.527-.717,2.859,2.859,0,0,0,1.109-3.919c-.113-.263-.213-.531-.318-.8l.095-.05a2.478,2.478,0,0,1,.259.316c.676,1.169,1.408,2.311,2,3.521a7.751,7.751,0,0,1,.264,5.832,15.922,15.922,0,0,0-.807,5.818,7.982,7.982,0,0,0,1.095,4.009,4.811,4.811,0,0,0,2.735,1.908,2.917,2.917,0,0,0,2.977-1.436,4.118,4.118,0,0,0,.425-2.662,18.014,18.014,0,0,0-.511-2.29,4.485,4.485,0,0,0-.939-1.661,8.292,8.292,0,0,1-.835-1.543,3.919,3.919,0,0,1-.173-.562c-.354.36-.662.663-.959.977s-.573.624-.91.994a6.78,6.78,0,0,1-.82-.77,15.327,15.327,0,0,1-1.049-1.573.652.652,0,0,1,.009-.561,10.721,10.721,0,0,0,1.532-5.083,12.707,12.707,0,0,0-.674-4.362,20.629,20.629,0,0,0-2.57-5.294c-.082-.127-.151-.262-.226-.393l.06-.12a3.719,3.719,0,0,1,.665.241,7.905,7.905,0,0,1,3.791,5.229,15.155,15.155,0,0,1-.259,8.233c-.2.609-.094.846.414,1.281a6.241,6.241,0,0,0,1.618-3.316,23.257,23.257,0,0,0,.237-3.039,4.892,4.892,0,0,1,.916-2.93,5.12,5.12,0,0,0,.942-2.582.77.77,0,0,1,.051-.3.444.444,0,0,1,.253-.206c.055-.01.189.126.2.209a7.851,7.851,0,0,1-.067,3.4,30.235,30.235,0,0,0-1.262,8.45,7.058,7.058,0,0,0,1.767,4.747,1.858,1.858,0,0,0,.414.343c.584.364.8.291,1.183-.281a7.809,7.809,0,0,0,.9-2.571,18.679,18.679,0,0,0,.725-5.109,14.374,14.374,0,0,0-1.614-7.038c-.748-1.276-1.608-2.487-2.419-3.727-.253-.387-.521-.766-.756-1.164-.057-.1-.01-.253-.01-.382.135.043.341.044.392.134.533.935,1.482,1.031,2.387,1.208A1.993,1.993,0,0,0,55,42.565c-.319-.272-.625-.525-.922-.788a19.194,19.194,0,0,1-4.3-5.177,15.735,15.735,0,0,1-1.3-4.063c-.459-2.016-.981-4.02-1.369-6.05a13.516,13.516,0,0,1-.154-2.959c.045-1.35.158-2.7.319-4.043a12.551,12.551,0,0,1,1.552-4.576c.446-.81.838-1.65,1.238-2.484a1.355,1.355,0,0,0-.078-1.332,7.991,7.991,0,0,0-1.864-2.151c-.389-.316-.54-.293-.9.055A4.544,4.544,0,0,0,45.971,11.6c-.263,1.637-.436,3.29-.629,4.938-.056.478-.133.579-.591.517a1.971,1.971,0,0,0-1.53.508,4.357,4.357,0,0,0-1.438,2.108c-.156.476-.29.959-.456,1.432a3.148,3.148,0,0,1-.276.495l-.162-.051a6.877,6.877,0,0,1,.067-.762A10.59,10.59,0,0,0,41.3,17c-.153-.938-.37-1.865-.543-2.8-.13-.708-.232-1.421-.352-2.131a.943.943,0,0,1,.435-.992,7.578,7.578,0,0,0,1.2-1.029,3.718,3.718,0,0,0,.7-3.424c-.142-.659-.209-1.228.554-1.562l-.63-.924c-.244.225-.122.76-.577.689a3,3,0,0,1-.825-.42c.02.346.051.675.055,1,0,.449-.224.661-.661.557a3.011,3.011,0,0,1-.828-.384c-.6-.367-1.191-.762-1.791-1.136a1.411,1.411,0,0,0-.395-.148c-.292-.075-.452.036-.435.35A2.069,2.069,0,0,0,37.8,5.923c.237.269.48.532.731.81-.421.086-.8-.062-1.483-.6-.434-.342-.845-.711-1.295-1.091-.113.151-.228.287-.322.435-2.025,3.184-4.09,6.344-6.051,9.567a10.808,10.808,0,0,1-3.671,3.766,28.466,28.466,0,0,0-3.5,2.6,13.524,13.524,0,0,0-2.854,4.1,61.352,61.352,0,0,0-3.168,7.778c-.2.528-.424,1.048-.622,1.577a4.019,4.019,0,0,1-1.235,1.681Q8.553,41.419,2.489,45.93a3.061,3.061,0,0,0-1.177,1.492,1.18,1.18,0,0,0,.021.73,4.159,4.159,0,0,0,2.18,2.192A12.533,12.533,0,0,0,7.16,51.417a18.851,18.851,0,0,0,7.74-.3,11.7,11.7,0,0,0,5.045-2.65,12.382,12.382,0,0,1,1.48-1.152c-.085.209-.155.425-.256.626a7.813,7.813,0,0,1-4.379,3.649,16.784,16.784,0,0,1-4.9.985,20.978,20.978,0,0,1-5.661-.212,11.426,11.426,0,0,1-4.433-1.811,4.358,4.358,0,0,1-1.675-2.21,1.857,1.857,0,0,1,.081-1.5,5.458,5.458,0,0,1,1.64-1.972c3.025-2.28,6.056-4.55,9.062-6.854,1.021-.783,1.974-1.655,2.957-2.488a3.761,3.761,0,0,0,1.081-1.618c.891-2.41,1.728-4.844,2.723-7.21a16.732,16.732,0,0,1,3.219-5.326,19.993,19.993,0,0,1,4.474-3.537,7.6,7.6,0,0,0,2.652-2.479c2.039-3.1,4.117-6.171,6.185-9.249.273-.406.569-.8.87-1.184a4.594,4.594,0,0,0,.877-1.785A5.6,5.6,0,0,1,37.231.756a1.926,1.926,0,0,1,2.638-.4,7.664,7.664,0,0,1,2.488,2.325,8.683,8.683,0,0,0,.872,1.032A8.223,8.223,0,0,1,44.723,6.69c.331,1.025.689,2.041,1.064,3.143.257-.362.473-.669.692-.975.645-.9,1.2-1.037,2.13-.439a5.2,5.2,0,0,1,1.11,1,10.76,10.76,0,0,1,.888,1.307,2.24,2.24,0,0,1,.182,2.142q-.921,2.271-1.826,4.547a10.937,10.937,0,0,0-.775,3.449c-.07,1.261-.156,2.523-.186,3.785a12.209,12.209,0,0,0,.921,4.431c.213.592.409,1.191.619,1.784a8.755,8.755,0,0,0,3.538,4.223,19.817,19.817,0,0,0,4.89,2.253c.4.139.8.281,1.285.454-1.079.558-2.148.256-3.214.324.464.311.936.61,1.389.936A8.468,8.468,0,0,1,60.7,42.969a42.625,42.625,0,0,1,1.248,4.449,6.264,6.264,0,0,1,.019,3.174c-.013.045-.031.089-.081.23A5.888,5.888,0,0,0,58.772,47c.292.4.588.8.874,1.2a19.491,19.491,0,0,1,3.118,6.547,10.408,10.408,0,0,1,.021,4.3c-.089.52-.177,1.04-.272,1.558a.513.513,0,0,1-.2.324,1.4,1.4,0,0,1-.016-.277,4.99,4.99,0,0,0-.254-2.207,12.55,12.55,0,0,0-2.275-4.56,2.061,2.061,0,0,0-1.23-.733.531.531,0,0,0-.653.282.548.548,0,0,0,.207.679,5.887,5.887,0,0,1,2.075,4.016c.271,2.119.423,4.253.643,6.379a5.928,5.928,0,0,0,1,2.807c.377.547.743,1.1,1.114,1.651l-.073.1a4.137,4.137,0,0,1-.693-.238c-1.552-.857-3.1-1.729-4.644-2.6-.075-.042-.155-.076-.334-.162A11.049,11.049,0,0,1,57.6,73.3a9.376,9.376,0,0,0-3.709-5.485c.118.323.2.583.307.828a12.36,12.36,0,0,1,1.144,3.51,22.865,22.865,0,0,1,.014,7.309,12.087,12.087,0,0,1-4.793,7.16,2.474,2.474,0,0,1-.737.426,3.943,3.943,0,0,1,.243-.409A10.982,10.982,0,0,0,52.276,81.2a6.8,6.8,0,0,0-1.018-4.353,1.653,1.653,0,0,0-2.434-.461,6.71,6.71,0,0,0-2.318,2.742A11.855,11.855,0,0,0,45.792,82a27.46,27.46,0,0,0-.29,6.625,10.033,10.033,0,0,1-2.438,6.863,14.092,14.092,0,0,1-4.641,3.953c-.155.076-.319.133-.576.239.134-.235.2-.382.3-.515a9.241,9.241,0,0,0,1.485-4.879,7.973,7.973,0,0,0-.792-4,3.687,3.687,0,0,0-3.38-2.176c-.758-.042-1.522-.073-2.271-.188a4.473,4.473,0,0,1-3.5-2.946,8.1,8.1,0,0,1,.63-8.057,7.712,7.712,0,0,1,.9-.984l.077.062c-.1.4-.233.794-.3,1.2a4.2,4.2,0,0,0,2.1,4.028,10.745,10.745,0,0,0,1.753.687,3.953,3.953,0,0,0,2.577-.462,5.734,5.734,0,0,0,3.728-4.226,8.331,8.331,0,0,0-2.326-7.92,9.662,9.662,0,0,1-2.822-4.134,8.225,8.225,0,0,1-.1-5.527,21.068,21.068,0,0,1,1.082-2.077l-1.233-.512c-.137.69-.294,1.334-.389,1.987-.24,1.655-.491,3.311-.662,4.974a17.3,17.3,0,0,0-.043,2.847,3.063,3.063,0,0,0,1.4,2.3,4.711,4.711,0,0,1,.463,7.279,7.781,7.781,0,0,1-2.176,1.517l-1.816.909-.075-.082c.209-.356.414-.715.627-1.068a3.15,3.15,0,0,0-2.27-4.732,1.566,1.566,0,0,0-1.223.367,4.7,4.7,0,0,0-1.546,2,12.145,12.145,0,0,0-1.056,3.928c-.032,1.519.008,3.041.062,4.56.038,1.081.162,2.158.221,3.239a5.365,5.365,0,0,1-.1.893l-.127.014a3.712,3.712,0,0,1-.129-.364q-.352-1.421-.694-2.845a1.91,1.91,0,0,0-.711-1.116.828.828,0,0,0-1.291.1,2.927,2.927,0,0,0-.763,2.092,8.29,8.29,0,0,0,.309,1.93,7.686,7.686,0,0,0,.935,2.6c.249.359.536.691.891,1.144a3.549,3.549,0,0,1-.7-.183,7.719,7.719,0,0,1-2.231-1.878,23.067,23.067,0,0,1-3.713-6.941,5.828,5.828,0,0,0-2.57-3.169,2.062,2.062,0,0,0-.832-.268,1.412,1.412,0,0,0-1.371.84,4.525,4.525,0,0,0,.139,4.635c.134.235.289.457.433.686.02.032.033.069-.015.183a4.851,4.851,0,0,1-.566-.488,15.63,15.63,0,0,1-2.714-4.736c-.45-1.187-.807-2.409-1.2-3.617a2.644,2.644,0,0,1-.067-.417l-.107-.005c-.008.6-.02,1.19-.023,1.785s-.038,1.216.013,1.818.192,1.211.214,1.9a1.082,1.082,0,0,0-.11-.222,9.845,9.845,0,0,1-1.82-4.413,23.721,23.721,0,0,1-.284-7.46c.018-.166.024-.334.033-.5a.421.421,0,0,0-.013-.09,11.14,11.14,0,0,0-.943,6.2l-.155.045a1.96,1.96,0,0,1-.281-.34,15.531,15.531,0,0,1-1.45-4.7,22.92,22.92,0,0,1,.263-6.648A28.719,28.719,0,0,1,7.3,57.955c.055-.158.116-.313.171-.471.007-.019-.006-.045-.015-.1a.9.9,0,0,0-.2.075A9.582,9.582,0,0,0,4.01,60.545c-.043.079-.083.18-.154.218a1.351,1.351,0,0,1-.341.089c-.023-.1-.089-.214-.064-.3a8.527,8.527,0,0,1,1.966-3.5,25.969,25.969,0,0,1,4.015-3.5,1.8,1.8,0,0,1,.925-.321,22.885,22.885,0,0,0,8.53-2.08c.094-.042.186-.087.279-.131l.306-.146c.112.379.237.728.317,1.087a8.567,8.567,0,0,0,1.071,2.549.421.421,0,0,1-.069.581,6.516,6.516,0,0,0-1.536,3.029,2.185,2.185,0,0,1-.357.712c-.736-1.024-1.636-1.93-1.788-3.259a9.868,9.868,0,0,0-6.745,4.641c1.6-.558,3.023-1.577,4.882-1.756-.151.2-.232.323-.324.433-.394.475-.833.92-1.179,1.428a5.02,5.02,0,0,0-.7,2.938c.261-.255.462-.48.692-.671,1.086-.9,1.821-.741,2.241.6a7.7,7.7,0,0,1,.258,3.625c-.017.1-.019.2-.028.3.467.112.57.077.724-.387.68-2.062,1.356-4.125,2.011-6.195.337-1.066.607-2.153.954-3.216a1.6,1.6,0,0,1,.546-.747c.841-.615,1.727-1.169,2.577-1.773a.635.635,0,0,1,.893.051,4.936,4.936,0,0,1,1.218,1.943,2.143,2.143,0,0,1,.012,1.932,1.58,1.58,0,0,0-.135.361c-.145.67-.426,1.065-1.241.989-.376-.035-.786.317-1.185.481a4.119,4.119,0,0,1-.477.135,1.406,1.406,0,0,1,.053-.513,5.553,5.553,0,0,0,.823-2.58c0-.52-.161-.712-.732-.851a4.852,4.852,0,0,1-.083.871c-.206.741-.423,1.481-.688,2.2-.63,1.714-1.251,3.432-1.952,5.118C19.08,65.987,18.5,67,17.981,68.028c-.085.169-.186.33-.308.543.1-.013.133-.006.154-.022a10.594,10.594,0,0,0,3.462-4.027,2.39,2.39,0,0,0,.144-.438c.247-.93.159-1.128-.677-1.562a1.217,1.217,0,0,1-.136-.11A15.653,15.653,0,0,1,24.7,60.9l.069.123c-.089.1-.183.193-.266.3a4.619,4.619,0,0,0-.661.866,19.214,19.214,0,0,0-.688,1.841,7.2,7.2,0,0,1-1.533,2.659,5.95,5.95,0,0,0-1.557,3.938,3.317,3.317,0,0,0,1.682,2.99,1.658,1.658,0,0,0,1.768-.082,4.086,4.086,0,0,0,1-.78c.89-.968,1.752-1.961,2.612-2.956a3.3,3.3,0,0,1,2.534-1.2,12.234,12.234,0,0,0,1.988-.232.992.992,0,0,0,.6-.468,5.321,5.321,0,0,0,.575-2.257c.075-1.556.212-3.108.338-4.661a25.02,25.02,0,0,1,.278-2.725c.312-1.613.7-3.213,1.1-4.809a1.657,1.657,0,0,1,.527-.739c1.2-1.077,2.416-2.132,3.628-3.194.375-.329.467-.306.624.163a7.678,7.678,0,0,0,.267.8,2.867,2.867,0,0,1-.509,3.1c-.32.431-.714.808-1.1,1.24m3.778,3.2.107.028c.435-1.339.89-2.672,1.293-4.02a1.886,1.886,0,0,0-.121-1.381,8.4,8.4,0,0,0-1.279,5.373m.951-45.633a8.9,8.9,0,0,0-.407-.846c-.375-.614-.436-.617-1.021-.2-.493.352-.527.45-.36.952l1.789.093M37.647,52.267a1.8,1.8,0,0,0-1.055,2.1,2.9,2.9,0,0,0,1.055-2.1m6.606-40.113.959,1.11c.258-.852.214-1.077-.959-1.11" transform="translate(0 0)" fill="#222"/><path d="M96.579,72.5c.789-1.426,1.9-2.656,2.162-4.332a11.838,11.838,0,0,0-.132-4.071,6.278,6.278,0,0,1,.378-3.6,15.816,15.816,0,0,1,2.968-4.718,4.612,4.612,0,0,1,.387-.344l.086.05c-.025.117-.041.236-.074.35a15.791,15.791,0,0,0-.668,4.064,4.647,4.647,0,0,0,.341,1.757,9.734,9.734,0,0,0,2.4,3.332,8.469,8.469,0,0,1,2.26,3.545,5.931,5.931,0,0,1-.365,4.1,2.745,2.745,0,0,1-.5.616,11.355,11.355,0,0,0-.008-1.312,2.761,2.761,0,0,0-2.333-2.248.944.944,0,0,0-.893.489,3.585,3.585,0,0,0-.284,2.8,8.026,8.026,0,0,0,2.166,3.943,6.431,6.431,0,0,1,1.77,4.9,12.3,12.3,0,0,1-.675,3.118,1.867,1.867,0,0,1-.259.42l-.135-.055c.061-.384.109-.771.186-1.152a3.8,3.8,0,0,0-.836-3.179c-.156-.2-.33-.4-.5-.589a1.1,1.1,0,0,0-1.086-.371c.09.484.174.956.265,1.427a13.628,13.628,0,0,1,.042,4,8.53,8.53,0,0,1-1.367,3.764,15.616,15.616,0,0,0-2.072,5.776c-.192,1.11-.193,2.252-.281,3.38-.107,1.373-.2,2.747-.327,4.118-.186,1.947-.426,3.889-.591,5.837a11.033,11.033,0,0,0,.142,1.79c-.1-.046-.275-.067-.351-.163a6.19,6.19,0,0,1-1.365-4.908c.188-1.257.289-2.528.416-3.793a3.882,3.882,0,0,0-.069-.681c-.5.313-.952.574-1.379.868-.1.067-.135.239-.169.371-.235.92-.441,1.848-.7,2.762a4.2,4.2,0,0,1-1.247,1.966c-.672.621-1.334,1.254-2.009,1.872a7.134,7.134,0,0,0-2.311,4.3c-.021.135-.061.267-.092.4l-.117.014a1.543,1.543,0,0,1-.11-.432A12.063,12.063,0,0,1,90.4,107.7c1.191-2.366,2.3-4.774,3.375-7.2a33.929,33.929,0,0,1,3.447-5.932,10.181,10.181,0,0,0,1.906-4.179,8.413,8.413,0,0,0-.3-4.221c-.042.157-.085.315-.126.472a12.723,12.723,0,0,1-3.008,5.83,10.178,10.178,0,0,1-1.664,1.166,1.308,1.308,0,0,1-.29.087c.1-.2.154-.333.227-.458a18.547,18.547,0,0,0,1.815-4,3.393,3.393,0,0,0-.307-2.69,2.331,2.331,0,0,0-2.221-1.352,2.721,2.721,0,0,0-2.674,1.683,4.657,4.657,0,0,0-.2,2.7c.029.137.042.277.063.415l-.1.056a3.283,3.283,0,0,1-.445-.7,21.527,21.527,0,0,1-.591-2.15,13.614,13.614,0,0,1,.185-6.275,8.275,8.275,0,0,1,1.285-2.665c.626-.9,1.29-1.768,1.943-2.647a6.788,6.788,0,0,0,1.388-3.426A3.617,3.617,0,0,0,93.9,70.5a1.453,1.453,0,0,1-.019-.471,1.835,1.835,0,0,1,.464.04,3.223,3.223,0,0,1,2.015,2.048c.04.109.083.216.126.323,0,.009.019.012.094.06m4.286,7.964.107.007c.024-.549.009-1.1.079-1.646a4.53,4.53,0,0,0-.464-2.539,12.2,12.2,0,0,1-1.231-3.229c-.046-.3-.076-.6-.12-.951-.2.365-.348.687-.537.986-.35.554-.742,1.083-1.082,1.643a25.441,25.441,0,0,0-2.968,5.519c-.136.438-.213.895-.317,1.343l.112.033a8.726,8.726,0,0,0,.453-.795,3.96,3.96,0,0,1,2.465-2.211,2.561,2.561,0,0,1,3.259,1.282c.091.182.163.373.244.56M96.441,99.36c.293-.159.487-.285.7-.373a.836.836,0,0,0,.54-.767c.039-.445.1-.887.163-1.434a9.213,9.213,0,0,0-1.4,2.575" transform="translate(-67.367 -41.953)" fill="#222"/><path d="M21.442,165.13c.716-.3,1.341-.508,1.913-.813A19.12,19.12,0,0,0,25.486,163a3.289,3.289,0,0,0,.776-.939.708.708,0,0,0-.024-.544c-.02-.053-.307-.053-.444,0-1.014.366-2.021.75-3.03,1.131-.128.048-.253.107-.459.2a1.894,1.894,0,0,1,.155-.493,8.19,8.19,0,0,1,1.075-1.394c1.585-1.415,3.219-2.776,4.828-4.164.6-.514,1.169-1.051,1.758-1.572.14-.124.3-.227.533-.4-.074.53-.133.956-.192,1.381a13.639,13.639,0,0,1,2.421-2.723c-.2.481-.413.958-.6,1.446-.29.768-.6,1.532-.826,2.32a2.475,2.475,0,0,0,.434,2.337c.273.341.5.722.805,1.034a1.978,1.978,0,0,0,1.909.574,4.891,4.891,0,0,1,.542-.047c-.67,2.817-5.18,6.224-7.574,5.708a8.537,8.537,0,0,0,2.236-2.258,8.49,8.49,0,0,1-8.37.543" transform="translate(-16.226 -116.138)" fill="#222"/><path d="M95.034,24.59a3.934,3.934,0,0,0,2.355,2.474,3,3,0,0,1-.5.185,4.188,4.188,0,0,0-2.4,1.433c-2.05,2.292-3.8,4.817-5.693,7.231a9.7,9.7,0,0,0-1.345,2.243,5.335,5.335,0,0,0-.247,1.927,1.29,1.29,0,0,1-.481,1.063,10.456,10.456,0,0,0-3.5,5.509,17.156,17.156,0,0,1-.547,1.725c-.044.122-.211.2-.322.3a1.2,1.2,0,0,1-.067-.433c.183-.762.415-1.513.578-2.278a3.733,3.733,0,0,0-.028-.914L82.665,45a12.046,12.046,0,0,0-1,1.1c-1.1,1.527-2.159,3.077-3.246,4.609a1.019,1.019,0,0,1-.426.319c-.235-.214.006-.385.111-.554.683-1.089,1.435-2.141,2.046-3.269a10.581,10.581,0,0,0,1.18-3.491,3.229,3.229,0,0,0,0-1.037,1.312,1.312,0,0,1,.421-1.282q3.044-2.97,6.061-5.97a28.217,28.217,0,0,0,3.624-4.8c1.127-1.75,2.129-3.58,3.185-5.375.091-.155.175-.315.267-.47a2.1,2.1,0,0,1,.147-.186m-9.76,15.855c-.7-.092-1.753.867-1.939,1.773a1.78,1.78,0,0,0,1.939-1.773" transform="translate(-58.942 -18.608)" fill="#222"/><path d="M212.1,222.252c.08-.388.155-.778.242-1.165.147-.651.3-1.3.454-1.948a.8.8,0,0,1,.116-.358.361.361,0,0,1,.309,0c.286.81.576,1.62.806,2.446a2.035,2.035,0,0,1,0,.948c-.178.8-.4,1.591-.624,2.38-.032.113-.162.2-.247.3-.089-.077-.21-.137-.262-.234a5.455,5.455,0,0,1-.79-2.371" transform="translate(-160.502 -165.532)" fill="#222"/><path d="M171.349,221.784a8.406,8.406,0,0,1,1.279-5.373,1.886,1.886,0,0,1,.121,1.381c-.4,1.348-.858,2.681-1.293,4.02l-.107-.028" transform="translate(-129.609 -163.763)" fill="#fff"/><path d="M169.641,46.766l-1.789-.093c-.167-.5-.133-.6.36-.952.585-.418.646-.415,1.021.2a8.9,8.9,0,0,1,.407.846" transform="translate(-126.949 -34.378)" fill="#fff"/><path d="M151.23,214.846a2.9,2.9,0,0,1-1.055,2.1,1.8,1.8,0,0,1,1.055-2.1" transform="translate(-113.582 -162.579)" fill="#fff"/><path d="M181.906,49.958c1.173.033,1.217.257.959,1.11l-.959-1.11" transform="translate(-137.652 -37.804)" fill="#fff"/><path d="M117.372,132.314c-.081-.187-.153-.378-.244-.56a2.561,2.561,0,0,0-3.259-1.282,3.961,3.961,0,0,0-2.466,2.212,8.619,8.619,0,0,1-.453.795l-.111-.034c.1-.448.181-.9.317-1.343a25.446,25.446,0,0,1,2.968-5.519c.34-.56.732-1.089,1.082-1.643.189-.3.34-.62.537-.986.044.351.074.652.12.951a12.186,12.186,0,0,0,1.231,3.23,4.526,4.526,0,0,1,.464,2.539c-.069.543-.055,1.1-.079,1.646l-.106-.007" transform="translate(-83.874 -93.8)" fill="#fff"/><path d="M119.512,227.963a9.213,9.213,0,0,1,1.4-2.575c-.063.547-.123.99-.163,1.434a.836.836,0,0,1-.54.767c-.209.089-.4.214-.7.373" transform="translate(-90.437 -170.556)" fill="#fff"/><path d="M102.209,89.743a1.78,1.78,0,0,1-1.939,1.773c.186-.906,1.234-1.865,1.939-1.773" transform="translate(-75.877 -67.906)" fill="#fff"/></g></svg>