<svg xmlns="http://www.w3.org/2000/svg" xmlns:xlink="http://www.w3.org/1999/xlink" width="47.985" height="75.92" viewBox="0 0 47.985 75.92"><defs><clipPath id="a"><rect width="47.985" height="75.92" fill="none"/></clipPath></defs><g clip-path="url(#a)"><path d="M28.915,41.754a5.87,5.87,0,0,0,.574.233.421.421,0,0,1,.329.532q-.107.786-.2,1.575a3.655,3.655,0,0,0-.036.616.7.7,0,0,1-.322.646A2.7,2.7,0,0,0,28.152,47a1.971,1.971,0,0,0,1.057,2.106A2.779,2.779,0,0,1,30.8,50.436c.024-.011.061-.016.071-.036a3.472,3.472,0,0,0,.526-2.662c-.13-.429-.194-.88-.35-1.3a1.948,1.948,0,0,0-.491-.757,1.42,1.42,0,0,1-.437-1.515c.328-1.45.629-2.907.97-4.354a.925.925,0,0,1,.4-.546,2.178,2.178,0,0,0,.844-2.985c-.086-.2-.162-.4-.242-.607l.072-.038a1.888,1.888,0,0,1,.2.241c.515.891,1.073,1.76,1.527,2.682a5.9,5.9,0,0,1,.2,4.442,12.127,12.127,0,0,0-.615,4.431,6.08,6.08,0,0,0,.834,3.053,3.665,3.665,0,0,0,2.083,1.453,2.222,2.222,0,0,0,2.267-1.094,3.137,3.137,0,0,0,.324-2.028,13.721,13.721,0,0,0-.389-1.744,3.417,3.417,0,0,0-.715-1.265,6.316,6.316,0,0,1-.636-1.176,2.984,2.984,0,0,1-.132-.428c-.27.274-.5.505-.73.744s-.436.476-.693.757a5.164,5.164,0,0,1-.625-.587,11.673,11.673,0,0,1-.8-1.2.5.5,0,0,1,.006-.427,8.166,8.166,0,0,0,1.167-3.872,9.678,9.678,0,0,0-.513-3.322,15.712,15.712,0,0,0-1.957-4.032c-.062-.1-.115-.2-.172-.3l.045-.092a2.833,2.833,0,0,1,.506.184,6.021,6.021,0,0,1,2.888,3.983,11.543,11.543,0,0,1-.2,6.271c-.151.464-.071.644.315.975a4.753,4.753,0,0,0,1.232-2.526,17.714,17.714,0,0,0,.181-2.315,3.726,3.726,0,0,1,.7-2.232,3.9,3.9,0,0,0,.718-1.966.586.586,0,0,1,.039-.229.338.338,0,0,1,.193-.157c.042-.007.144.1.153.159a5.98,5.98,0,0,1-.051,2.593,23.028,23.028,0,0,0-.961,6.436A5.376,5.376,0,0,0,39.9,46.669a1.416,1.416,0,0,0,.316.261c.445.278.608.222.9-.214a5.948,5.948,0,0,0,.682-1.959,14.227,14.227,0,0,0,.552-3.891,10.948,10.948,0,0,0-1.23-5.36c-.57-.972-1.225-1.894-1.842-2.839-.193-.295-.4-.583-.576-.886-.043-.073-.007-.193-.008-.291.1.032.26.034.3.1.406.712,1.128.785,1.818.92a1.518,1.518,0,0,0,1.084-.092c-.243-.207-.476-.4-.7-.6a14.62,14.62,0,0,1-3.276-3.943,11.985,11.985,0,0,1-.994-3.095c-.35-1.536-.747-3.062-1.043-4.608a10.3,10.3,0,0,1-.117-2.254c.034-1.028.12-2.058.243-3.079a9.56,9.56,0,0,1,1.182-3.486c.34-.617.638-1.257.943-1.892a1.032,1.032,0,0,0-.059-1.014A6.086,6.086,0,0,0,36.65,6.811c-.3-.241-.411-.223-.682.042a3.461,3.461,0,0,0-.954,1.984c-.2,1.247-.332,2.506-.479,3.761-.043.364-.1.441-.45.394a1.5,1.5,0,0,0-1.165.387,3.319,3.319,0,0,0-1.1,1.606c-.119.362-.221.73-.347,1.09a2.4,2.4,0,0,1-.21.377l-.123-.039a5.238,5.238,0,0,1,.051-.58,8.066,8.066,0,0,0,.266-2.883c-.116-.714-.282-1.42-.413-2.132-.1-.539-.176-1.083-.268-1.623a.718.718,0,0,1,.332-.755,5.772,5.772,0,0,0,.911-.784,2.832,2.832,0,0,0,.535-2.608c-.108-.5-.159-.935.422-1.19l-.48-.7c-.186.172-.093.579-.439.525a2.287,2.287,0,0,1-.628-.32c.015.264.039.514.042.765,0,.342-.17.5-.5.424a2.293,2.293,0,0,1-.631-.293c-.46-.28-.907-.581-1.364-.865a1.075,1.075,0,0,0-.3-.113c-.223-.057-.344.028-.331.267a1.576,1.576,0,0,0,.446.968c.181.2.365.405.556.617-.321.065-.612-.047-1.129-.455-.33-.26-.644-.541-.986-.831-.086.115-.173.218-.245.331-1.542,2.426-3.115,4.832-4.608,7.287a8.232,8.232,0,0,1-2.8,2.869,21.681,21.681,0,0,0-2.665,1.978,10.3,10.3,0,0,0-2.174,3.121,46.729,46.729,0,0,0-2.413,5.924c-.154.4-.323.8-.474,1.2a3.062,3.062,0,0,1-.941,1.281q-4.4,3.714-9.018,7.149A2.332,2.332,0,0,0,1,36.12a.9.9,0,0,0,.016.556,3.168,3.168,0,0,0,1.661,1.67,9.546,9.546,0,0,0,2.778.817,14.358,14.358,0,0,0,5.9-.228,8.912,8.912,0,0,0,3.842-2.018,9.431,9.431,0,0,1,1.127-.877c-.064.159-.118.324-.2.477a5.951,5.951,0,0,1-3.335,2.779,12.784,12.784,0,0,1-3.733.75,15.978,15.978,0,0,1-4.312-.162A8.7,8.7,0,0,1,1.367,38.5,3.32,3.32,0,0,1,.091,36.821a1.415,1.415,0,0,1,.062-1.14,4.157,4.157,0,0,1,1.249-1.5c2.3-1.736,4.613-3.465,6.9-5.22.778-.6,1.5-1.26,2.252-1.9a2.864,2.864,0,0,0,.823-1.232C12.058,24,12.7,22.142,13.453,20.34a12.744,12.744,0,0,1,2.452-4.056,15.228,15.228,0,0,1,3.407-2.694,5.792,5.792,0,0,0,2.02-1.888c1.553-2.36,3.136-4.7,4.711-7.045.208-.309.433-.607.663-.9a3.5,3.5,0,0,0,.668-1.36,4.263,4.263,0,0,1,.984-1.82A1.467,1.467,0,0,1,30.367.268a5.837,5.837,0,0,1,1.9,1.771,6.614,6.614,0,0,0,.664.786A6.263,6.263,0,0,1,34.064,5.1c.252.781.525,1.554.81,2.394.2-.276.36-.51.527-.742.491-.685.913-.79,1.622-.334a3.964,3.964,0,0,1,.845.759,8.2,8.2,0,0,1,.676,1A1.706,1.706,0,0,1,38.683,9.8q-.7,1.729-1.391,3.464a8.33,8.33,0,0,0-.59,2.627c-.053.961-.119,1.921-.142,2.883a9.3,9.3,0,0,0,.7,3.375c.163.451.311.907.472,1.359a6.668,6.668,0,0,0,2.7,3.216,15.094,15.094,0,0,0,3.725,1.716c.3.106.607.214.979.346a5.5,5.5,0,0,1-2.448.246c.353.237.713.465,1.058.713a6.45,6.45,0,0,1,2.493,2.984,32.466,32.466,0,0,1,.95,3.388,4.771,4.771,0,0,1,.014,2.418c-.01.035-.024.068-.061.175A4.485,4.485,0,0,0,44.765,35.8c.222.306.448.608.666.917A14.846,14.846,0,0,1,47.806,41.7a7.928,7.928,0,0,1,.016,3.274c-.068.4-.135.792-.207,1.187a.391.391,0,0,1-.149.246,1.07,1.07,0,0,1-.012-.211,3.8,3.8,0,0,0-.193-1.681,9.558,9.558,0,0,0-1.733-3.474,1.57,1.57,0,0,0-.937-.558.4.4,0,0,0-.5.215.417.417,0,0,0,.158.518,4.484,4.484,0,0,1,1.581,3.059c.206,1.614.322,3.24.49,4.859a4.515,4.515,0,0,0,.76,2.138c.287.417.566.838.849,1.258l-.055.08a3.151,3.151,0,0,1-.528-.182c-1.182-.653-2.359-1.317-3.537-1.977-.057-.032-.118-.058-.254-.123a8.415,8.415,0,0,1,.318,5.5,7.141,7.141,0,0,0-2.825-4.178c.09.246.15.444.233.63a9.414,9.414,0,0,1,.871,2.674,17.416,17.416,0,0,1,.01,5.567,9.206,9.206,0,0,1-3.65,5.454,1.884,1.884,0,0,1-.562.324,3,3,0,0,1,.185-.311,8.364,8.364,0,0,0,1.681-4.144,5.179,5.179,0,0,0-.775-3.315,1.259,1.259,0,0,0-1.854-.351,5.11,5.11,0,0,0-1.765,2.088,9.029,9.029,0,0,0-.543,2.186,20.915,20.915,0,0,0-.221,5.046A7.642,7.642,0,0,1,32.8,72.728a10.733,10.733,0,0,1-3.535,3.011c-.118.058-.243.1-.439.182.1-.179.156-.291.225-.392a7.039,7.039,0,0,0,1.131-3.716,6.073,6.073,0,0,0-.6-3.046,2.809,2.809,0,0,0-2.575-1.657c-.578-.032-1.159-.055-1.729-.143a3.407,3.407,0,0,1-2.662-2.244,6.172,6.172,0,0,1,.48-6.137,5.874,5.874,0,0,1,.686-.75l.059.047c-.078.3-.178.6-.229.913a3.2,3.2,0,0,0,1.6,3.068,8.184,8.184,0,0,0,1.335.523,3.011,3.011,0,0,0,1.963-.352,4.368,4.368,0,0,0,2.839-3.219,6.345,6.345,0,0,0-1.772-6.032,7.359,7.359,0,0,1-2.149-3.148,6.265,6.265,0,0,1-.079-4.21,16.047,16.047,0,0,1,.824-1.582l-.939-.39c-.1.526-.224,1.016-.3,1.514-.183,1.261-.374,2.522-.5,3.788a13.178,13.178,0,0,0-.033,2.169,2.333,2.333,0,0,0,1.068,1.75,3.588,3.588,0,0,1,.353,5.544,5.926,5.926,0,0,1-1.657,1.155l-1.383.692L24.724,60c.159-.271.315-.544.478-.813a2.4,2.4,0,0,0-1.729-3.6,1.193,1.193,0,0,0-.932.28,3.579,3.579,0,0,0-1.177,1.521,9.251,9.251,0,0,0-.8,2.992c-.025,1.157.006,2.316.047,3.473.029.823.123,1.644.168,2.467A4.086,4.086,0,0,1,20.7,67l-.1.011a2.827,2.827,0,0,1-.1-.278q-.268-1.083-.528-2.167a1.455,1.455,0,0,0-.542-.85.631.631,0,0,0-.983.074,2.23,2.23,0,0,0-.581,1.594,6.314,6.314,0,0,0,.235,1.47,5.854,5.854,0,0,0,.712,1.979c.19.273.408.526.679.871a2.7,2.7,0,0,1-.534-.139,5.879,5.879,0,0,1-1.7-1.431,17.569,17.569,0,0,1-2.828-5.287,4.439,4.439,0,0,0-1.957-2.414,1.571,1.571,0,0,0-.633-.2,1.076,1.076,0,0,0-1.044.64,3.446,3.446,0,0,0,.106,3.53c.1.179.22.348.329.523.015.025.025.053-.012.14a3.7,3.7,0,0,1-.431-.371,11.9,11.9,0,0,1-2.067-3.608c-.342-.9-.615-1.835-.914-2.755a2.014,2.014,0,0,1-.051-.317L7.68,58c-.006.453-.015.906-.018,1.36s-.029.926.01,1.384.146.922.163,1.444a.824.824,0,0,0-.084-.169,7.5,7.5,0,0,1-1.386-3.361,18.068,18.068,0,0,1-.217-5.682c.014-.127.018-.255.025-.382a.321.321,0,0,0-.01-.069,8.485,8.485,0,0,0-.718,4.719l-.118.034a1.493,1.493,0,0,1-.214-.259,11.829,11.829,0,0,1-1.1-3.578,17.457,17.457,0,0,1,.2-5.064,21.875,21.875,0,0,1,1.354-4.24c.042-.12.088-.238.13-.358.005-.015,0-.035-.012-.073a.683.683,0,0,0-.153.057,7.3,7.3,0,0,0-2.474,2.347c-.033.06-.063.137-.117.166a1.029,1.029,0,0,1-.259.068c-.018-.077-.068-.163-.049-.229a6.494,6.494,0,0,1,1.5-2.667,19.78,19.78,0,0,1,3.058-2.666,1.369,1.369,0,0,1,.7-.245,17.431,17.431,0,0,0,6.5-1.584c.072-.032.142-.066.213-.1l.233-.111c.085.289.18.555.241.828a6.525,6.525,0,0,0,.816,1.942.321.321,0,0,1-.052.442,4.963,4.963,0,0,0-1.17,2.307,1.664,1.664,0,0,1-.272.542,5.429,5.429,0,0,1-1.362-2.482A7.516,7.516,0,0,0,7.9,45.861c1.217-.425,2.3-1.2,3.719-1.337-.115.155-.177.246-.247.33-.3.362-.635.7-.9,1.088a3.823,3.823,0,0,0-.536,2.238c.2-.194.352-.366.527-.511.827-.688,1.387-.564,1.707.455a5.862,5.862,0,0,1,.2,2.761c-.013.075-.015.153-.021.226.356.086.434.059.551-.295.518-1.57,1.033-3.142,1.532-4.718.257-.812.463-1.64.726-2.449a1.221,1.221,0,0,1,.416-.569c.641-.469,1.315-.891,1.963-1.351a.484.484,0,0,1,.68.039,3.76,3.76,0,0,1,.927,1.48,1.632,1.632,0,0,1,.009,1.471,1.2,1.2,0,0,0-.1.275c-.11.51-.324.811-.946.753-.286-.027-.6.241-.9.366a3.136,3.136,0,0,1-.363.1,1.071,1.071,0,0,1,.04-.391,4.229,4.229,0,0,0,.627-1.965c0-.4-.123-.542-.557-.648a3.7,3.7,0,0,1-.064.663c-.157.564-.322,1.128-.524,1.677-.48,1.305-.953,2.614-1.486,3.9-.337.811-.778,1.579-1.175,2.366-.065.129-.142.251-.234.414.073-.01.1,0,.118-.017a8.069,8.069,0,0,0,2.637-3.068,1.82,1.82,0,0,0,.11-.334c.188-.708.121-.859-.515-1.19a.927.927,0,0,1-.1-.084,11.922,11.922,0,0,1,3.107-1.151l.052.094c-.068.075-.14.147-.2.226a3.518,3.518,0,0,0-.5.659,14.634,14.634,0,0,0-.524,1.4,5.485,5.485,0,0,1-1.168,2.025,4.532,4.532,0,0,0-1.186,3,2.526,2.526,0,0,0,1.281,2.277,1.263,1.263,0,0,0,1.347-.063,3.112,3.112,0,0,0,.758-.594c.678-.737,1.334-1.494,1.989-2.251a2.514,2.514,0,0,1,1.93-.911,9.318,9.318,0,0,0,1.514-.177.756.756,0,0,0,.456-.356A4.053,4.053,0,0,0,24.995,50c.057-1.185.162-2.367.258-3.55a19.057,19.057,0,0,1,.212-2.075c.238-1.229.532-2.448.835-3.663a1.262,1.262,0,0,1,.4-.563c.913-.82,1.84-1.624,2.763-2.433.286-.251.356-.233.475.124a5.849,5.849,0,0,0,.2.612,2.183,2.183,0,0,1-.388,2.358c-.244.328-.544.615-.839.945m2.877,2.438.082.021c.331-1.02.678-2.035.985-3.062a1.436,1.436,0,0,0-.092-1.052,6.4,6.4,0,0,0-.974,4.092m.725-34.757a6.783,6.783,0,0,0-.31-.644c-.286-.468-.332-.47-.778-.152-.375.268-.4.343-.274.725l1.362.071M28.675,39.81a1.368,1.368,0,0,0-.8,1.6,2.21,2.21,0,0,0,.8-1.6M33.706,9.257l.73.845c.2-.649.163-.82-.73-.845" transform="translate(0 0)" fill="#fff"/><path d="M94.778,68.437a10.253,10.253,0,0,0,1.646-3.3,9.017,9.017,0,0,0-.1-3.1,4.782,4.782,0,0,1,.288-2.741A12.046,12.046,0,0,1,98.873,55.7a3.515,3.515,0,0,1,.294-.262l.065.038c-.019.089-.031.18-.057.266a12.028,12.028,0,0,0-.509,3.1,3.539,3.539,0,0,0,.26,1.338,7.414,7.414,0,0,0,1.828,2.538,6.45,6.45,0,0,1,1.721,2.7,4.517,4.517,0,0,1-.278,3.123,2.091,2.091,0,0,1-.378.469,8.648,8.648,0,0,0-.006-1,2.1,2.1,0,0,0-1.777-1.713.719.719,0,0,0-.68.373,2.73,2.73,0,0,0-.216,2.136,6.113,6.113,0,0,0,1.65,3,4.9,4.9,0,0,1,1.348,3.733,9.366,9.366,0,0,1-.514,2.375,1.422,1.422,0,0,1-.2.32l-.1-.042c.047-.293.083-.587.142-.877a2.9,2.9,0,0,0-.636-2.421c-.119-.156-.251-.3-.382-.449a.836.836,0,0,0-.827-.283c.068.368.132.728.2,1.087a10.381,10.381,0,0,1,.032,3.046,6.5,6.5,0,0,1-1.041,2.867,11.894,11.894,0,0,0-1.578,4.4c-.146.845-.147,1.715-.214,2.574-.082,1.046-.149,2.093-.249,3.136-.141,1.483-.325,2.962-.45,4.446a8.4,8.4,0,0,0,.108,1.364c-.079-.035-.21-.051-.267-.124a4.715,4.715,0,0,1-1.04-3.738c.143-.958.22-1.925.317-2.889a2.959,2.959,0,0,0-.053-.519c-.384.238-.725.437-1.05.661-.074.051-.1.182-.129.283-.179.7-.336,1.408-.53,2.1a3.2,3.2,0,0,1-.949,1.5c-.512.473-1.016.955-1.53,1.426a5.434,5.434,0,0,0-1.76,3.276c-.016.1-.047.2-.07.305l-.089.011a1.175,1.175,0,0,1-.084-.329,9.188,9.188,0,0,1,.875-3.8c.907-1.8,1.754-3.636,2.571-5.482a25.843,25.843,0,0,1,2.625-4.518,7.755,7.755,0,0,0,1.452-3.183,6.408,6.408,0,0,0-.229-3.215c-.032.12-.065.24-.1.36A9.691,9.691,0,0,1,94.1,83.647a7.753,7.753,0,0,1-1.268.888,1,1,0,0,1-.221.066c.074-.151.118-.254.173-.349a14.126,14.126,0,0,0,1.382-3.043,2.584,2.584,0,0,0-.234-2.049,1.776,1.776,0,0,0-1.692-1.03,2.073,2.073,0,0,0-2.037,1.282,3.547,3.547,0,0,0-.153,2.053c.022.1.032.211.048.316l-.076.043a2.5,2.5,0,0,1-.339-.536,16.4,16.4,0,0,1-.45-1.638,10.369,10.369,0,0,1,.141-4.779,6.3,6.3,0,0,1,.979-2.03c.477-.683.982-1.347,1.48-2.016a5.17,5.17,0,0,0,1.057-2.61,2.755,2.755,0,0,0-.158-1.3,1.107,1.107,0,0,1-.015-.359,1.4,1.4,0,0,1,.353.03,2.455,2.455,0,0,1,1.534,1.56c.03.083.063.164.1.246,0,.006.014.009.071.045M98.043,74.5l.081.005c.018-.418.007-.84.06-1.254a3.45,3.45,0,0,0-.353-1.934,9.291,9.291,0,0,1-.938-2.46c-.035-.228-.058-.457-.092-.724-.15.278-.265.523-.409.751-.267.422-.565.825-.824,1.251a19.377,19.377,0,0,0-2.261,4.2c-.1.334-.162.681-.241,1.023l.085.025a6.647,6.647,0,0,0,.345-.605A3.016,3.016,0,0,1,95.374,73.1a1.95,1.95,0,0,1,2.482.976c.069.138.125.284.186.426m-3.369,14.39c.223-.121.371-.217.53-.284a.637.637,0,0,0,.411-.584c.03-.339.076-.676.124-1.093a7.017,7.017,0,0,0-1.065,1.961" transform="translate(-72.528 -45.168)" fill="#fff"/><path d="M21.442,162.352c.546-.228,1.021-.387,1.457-.619a14.559,14.559,0,0,0,1.623-1,2.5,2.5,0,0,0,.591-.715.539.539,0,0,0-.018-.415c-.016-.04-.233-.04-.339,0-.772.279-1.539.571-2.307.861-.1.037-.193.082-.35.149a1.443,1.443,0,0,1,.118-.376,6.238,6.238,0,0,1,.819-1.062c1.207-1.078,2.452-2.114,3.677-3.172.453-.391.891-.8,1.339-1.2.107-.095.228-.173.406-.306l-.147,1.052a10.388,10.388,0,0,1,1.844-2.074c-.152.367-.315.73-.455,1.1-.221.585-.457,1.167-.629,1.767a1.885,1.885,0,0,0,.33,1.78c.208.26.384.55.613.788a1.506,1.506,0,0,0,1.454.437,3.725,3.725,0,0,1,.412-.036c-.51,2.146-3.945,4.74-5.769,4.347a6.5,6.5,0,0,0,1.7-1.72,6.466,6.466,0,0,1-6.375.413" transform="translate(-17.469 -125.037)" fill="#fff"/><path d="M90.949,24.59a3,3,0,0,0,1.793,1.885,2.286,2.286,0,0,1-.379.141,3.19,3.19,0,0,0-1.829,1.092c-1.561,1.746-2.9,3.669-4.336,5.508a7.39,7.39,0,0,0-1.025,1.708,4.064,4.064,0,0,0-.188,1.468.982.982,0,0,1-.367.81,7.964,7.964,0,0,0-2.665,4.2,13.069,13.069,0,0,1-.417,1.314c-.033.093-.161.152-.245.226a.917.917,0,0,1-.051-.33c.14-.58.316-1.152.44-1.735a2.844,2.844,0,0,0-.021-.7l-.132-.041a9.173,9.173,0,0,0-.763.835c-.835,1.163-1.644,2.343-2.472,3.511a.776.776,0,0,1-.324.243c-.179-.163,0-.293.085-.422.52-.83,1.093-1.631,1.559-2.49a8.059,8.059,0,0,0,.9-2.659,2.459,2.459,0,0,0,0-.79,1,1,0,0,1,.32-.976q2.319-2.262,4.616-4.547a21.492,21.492,0,0,0,2.761-3.659c.858-1.333,1.622-2.726,2.426-4.094.069-.118.133-.24.2-.358a1.6,1.6,0,0,1,.112-.142M83.515,36.666c-.537-.07-1.335.66-1.477,1.35a1.356,1.356,0,0,0,1.477-1.35" transform="translate(-63.459 -20.034)" fill="#fff"/><path d="M212.1,221.417c.061-.3.118-.592.184-.887.112-.5.229-.99.346-1.484a.607.607,0,0,1,.089-.273.275.275,0,0,1,.235,0c.218.617.439,1.234.614,1.863a1.55,1.55,0,0,1,0,.722c-.135.61-.306,1.212-.476,1.813-.024.086-.124.151-.188.226-.068-.059-.16-.1-.2-.178a4.155,4.155,0,0,1-.6-1.806" transform="translate(-172.8 -178.215)" fill="#fff"/><path d="M171.332,220.5a6.4,6.4,0,0,1,.974-4.092,1.436,1.436,0,0,1,.092,1.052c-.307,1.027-.654,2.042-.985,3.062l-.082-.021" transform="translate(-139.54 -176.311)" fill="#222"/><path d="M169.193,46.448l-1.362-.071c-.127-.382-.1-.457.274-.725.446-.319.492-.316.778.152a6.779,6.779,0,0,1,.31.644" transform="translate(-136.676 -37.012)" fill="#222"/><path d="M150.96,214.846a2.21,2.21,0,0,1-.8,1.6,1.369,1.369,0,0,1,.8-1.6" transform="translate(-122.285 -175.036)" fill="#222"/><path d="M181.906,49.958c.893.025.927.2.73.845l-.73-.845" transform="translate(-148.2 -40.701)" fill="#222"/><path d="M115.815,130.321c-.062-.142-.116-.288-.186-.426a1.951,1.951,0,0,0-2.483-.977,3.017,3.017,0,0,0-1.878,1.685,6.564,6.564,0,0,1-.345.605l-.085-.026c.079-.341.138-.689.241-1.023a19.381,19.381,0,0,1,2.261-4.2c.259-.427.557-.829.824-1.251.144-.227.259-.473.409-.751.033.267.057.5.092.724a9.281,9.281,0,0,0,.937,2.46,3.448,3.448,0,0,1,.353,1.934c-.053.414-.042.836-.06,1.254l-.081-.005" transform="translate(-90.301 -100.987)" fill="#222"/><path d="M119.512,227.349a7.017,7.017,0,0,1,1.065-1.961c-.048.417-.094.754-.124,1.093a.637.637,0,0,1-.411.584c-.16.067-.307.163-.53.284" transform="translate(-97.367 -183.624)" fill="#222"/><path d="M101.747,89.741a1.356,1.356,0,0,1-1.477,1.35c.142-.69.94-1.42,1.477-1.35" transform="translate(-81.69 -73.109)" fill="#222"/></g></svg>